<svg xmlns="http://www.w3.org/2000/svg" xmlns:xlink="http://www.w3.org/1999/xlink" viewBox="0 0 800 745.78"><defs><style>.cls-1{fill:url(#Gradiente_sem_nome_40);}.cls-2{fill:url(#Gradiente_sem_nome_40-2);}.cls-3{fill:url(#Gradiente_sem_nome_43);}.cls-4{fill:url(#Gradiente_sem_nome_40-3);}.cls-5{fill:url(#Gradiente_sem_nome_40-4);}.cls-6{fill:url(#Gradiente_sem_nome_40-5);}.cls-7{fill:url(#Gradiente_sem_nome_40-6);}.cls-8{fill:url(#Gradiente_sem_nome_44);}.cls-9{fill:url(#Gradiente_sem_nome_42);}.cls-10{fill:url(#Gradiente_sem_nome_40-8);}.cls-11{fill:url(#Gradiente_sem_nome_40-9);}</style><linearGradient id="Gradiente_sem_nome_40" x1="398.08" y1="74.15" x2="401.35" y2="74.15" gradientUnits="userSpaceOnUse"><stop offset="0" stop-color="#146097"/><stop offset="0.41" stop-color="#149780"/><stop offset="1" stop-color="#096"/></linearGradient><linearGradient id="Gradiente_sem_nome_40-2" x1="402.43" y1="745.52" x2="405.67" y2="745.52" xlink:href="#Gradiente_sem_nome_40"/><linearGradient id="Gradiente_sem_nome_43" x1="381.21" y1="409.6" x2="420.43" y2="409.6" gradientUnits="userSpaceOnUse"><stop offset="0" stop-color="#146097"/><stop offset="0" stop-color="#149780"/><stop offset="1" stop-color="#096"/></linearGradient><linearGradient id="Gradiente_sem_nome_40-3" x1="398.45" y1="74.15" x2="401.35" y2="74.15" xlink:href="#Gradiente_sem_nome_40"/><linearGradient id="Gradiente_sem_nome_40-4" x1="470.47" y1="638.7" x2="470.54" y2="638.7" xlink:href="#Gradiente_sem_nome_40"/><linearGradient id="Gradiente_sem_nome_40-5" x1="502.05" y1="52.87" x2="502.35" y2="52.87" xlink:href="#Gradiente_sem_nome_40"/><linearGradient id="Gradiente_sem_nome_40-6" x1="331.86" y1="384.2" x2="502.28" y2="384.2" xlink:href="#Gradiente_sem_nome_40"/><linearGradient id="Gradiente_sem_nome_44" x1="447.12" y1="346.05" x2="800" y2="346.05" gradientUnits="userSpaceOnUse"><stop offset="0" stop-color="#096"/><stop offset="0.23" stop-color="#149780"/><stop offset="0.41" stop-color="#146097"/></linearGradient><linearGradient id="Gradiente_sem_nome_42" y1="346.17" x2="352.2" y2="346.17" gradientUnits="userSpaceOnUse"><stop offset="0.42" stop-color="#146097"/><stop offset="0.84" stop-color="#149780"/><stop offset="1" stop-color="#096"/></linearGradient><linearGradient id="Gradiente_sem_nome_40-8" x1="291.38" y1="600.43" x2="291.61" y2="600.43" xlink:href="#Gradiente_sem_nome_40"/><linearGradient id="Gradiente_sem_nome_40-9" x1="332.42" y1="25.81" x2="332.72" y2="25.81" xlink:href="#Gradiente_sem_nome_40"/></defs><g id="Camada_2" data-name="Camada 2"><g id="Somente_icone" data-name="Somente icone"><path class="cls-1" d="M401.35,73.57,400,75l-1.55-1.55a1.38,1.38,0,0,0-.37,0,1.66,1.66,0,0,1,.33-.06.49.49,0,0,1,.23,0h.56A9.63,9.63,0,0,1,401.35,73.57Z"/><path class="cls-2" d="M405.67,745.26a10.44,10.44,0,0,1-2.67.52h-.57a3.83,3.83,0,0,0,.57,0A10.41,10.41,0,0,0,405.67,745.26Z"/><path class="cls-3" d="M420.43,712.59c.07,12.89-3.92,24.13-9.82,29.63l0,0c-.53.46-1,.85-1.55,1.25a18.79,18.79,0,0,1-1.65,1,15.15,15.15,0,0,1-1.71.73,10.41,10.41,0,0,1-2.67.49,3.83,3.83,0,0,1-.57,0,10.57,10.57,0,0,1-5.3-1.45,19.47,19.47,0,0,1-1.65-1.08.34.34,0,0,0-.13-.1l-.66-.56a7.47,7.47,0,0,1-.76-.73,13.39,13.39,0,0,1-1.48-1.61c-.36-.47-.76-.93-1.12-1.45a28.35,28.35,0,0,1-1.55-2.51c-.4-.72-.79-1.52-1.16-2.31-.23-.52-.46-1.05-.66-1.61s-.56-1.32-.79-2a1.56,1.56,0,0,0-.13-.4c-.26-.82-.53-1.68-.76-2.57s-.46-1.85-.66-2.8c-.13-.53-.23-1.09-.33-1.65-.19-1-.33-2.08-.46-3.13a60.8,60.8,0,0,1-.39-6.59l-.1-20-3.1-581.16v-.17l0-5.4c-.07-12.89,3.92-24.13,9.82-29.64.53-.46,1.06-.89,1.58-1.28a16.77,16.77,0,0,1,1.65-1,17.15,17.15,0,0,1,1.71-.72,5.17,5.17,0,0,1,1-.26c.33-.07.7-.1,1-.14a.11.11,0,0,0,.09,0,1.38,1.38,0,0,1,.37,0L400,75l1.35-1.39a11.67,11.67,0,0,1,3.16,1.22,17.41,17.41,0,0,1,1.65,1.09c.26.2.53.43.79.66a8.62,8.62,0,0,1,.76.72,14.3,14.3,0,0,1,1.48,1.62,15,15,0,0,1,1.12,1.45,28.35,28.35,0,0,1,1.55,2.51c.4.72.79,1.51,1.16,2.3.23.53.46,1.06.66,1.62s.56,1.32.79,2a1.49,1.49,0,0,0,.13.39c.26.83.53,1.69.76,2.58a26.63,26.63,0,0,1,.66,2.8c.13.52.23,1.09.33,1.65.19,1,.33,2.07.46,3.13s.23,2.14.29,3.23v0c.07,1.09.1,2.21.1,3.33l0,7.55v.16l3.06,575Z"/><path class="cls-4" d="M401.35,73.57,400,75l-1.55-1.55a.42.42,0,0,1,.19,0,2.83,2.83,0,0,1,.56,0A9.63,9.63,0,0,1,401.35,73.57Z"/><path class="cls-5" d="M470.54,639c0-.16,0-.33-.07-.49h0A2,2,0,0,0,470.54,639Z"/><path class="cls-6" d="M502.35,53.76c0-.2-.07-.36-.1-.56a8,8,0,0,0-.2-1.22c.06.4.13.79.23,1.22C502.31,53.4,502.31,53.56,502.35,53.76Z"/><path class="cls-7" d="M420.3,689.55a.38.38,0,0,0-.66-.26L409,699.93a12.75,12.75,0,0,1-18,0l-6-6a.4.4,0,0,0-.66.23v0l.1,19a60.8,60.8,0,0,0,.39,6.59c.13,1.05.27,2.11.46,3.13.1.56.2,1.12.33,1.65.2.95.4,1.91.66,2.8s.5,1.75.76,2.57a1.56,1.56,0,0,1,.13.4c.23.69.5,1.35.79,2s.43,1.09.66,1.61c.37.79.76,1.59,1.16,2.31a28.35,28.35,0,0,0,1.55,2.51c.36.52.76,1,1.12,1.45a13.39,13.39,0,0,0,1.48,1.61,7.47,7.47,0,0,0,.76.73l.66.56c1.55.13,3.1.19,4.65.19a52.62,52.62,0,0,0,10.58-1.08l0,0c5.9-5.5,9.89-16.74,9.82-29.63ZM332.19,25.22a1.3,1.3,0,0,0-.33-.17,1.6,1.6,0,0,1,.56.5A.38.38,0,0,0,332.19,25.22Zm66.22,48.16a1.66,1.66,0,0,0-.33.06,1.38,1.38,0,0,1,.37,0ZM470.5,638.46h0c0,.16,0,.33.07.49A2,2,0,0,1,470.5,638.46ZM502.05,52a8,8,0,0,1,.2,1.22h0C502.18,52.77,502.11,52.38,502.05,52Zm0,0a8,8,0,0,1,.2,1.22h0C502.18,52.77,502.11,52.38,502.05,52Zm0,0a8,8,0,0,1,.2,1.22h0C502.18,52.77,502.11,52.38,502.05,52Zm0,0a8,8,0,0,1,.2,1.22h0C502.18,52.77,502.11,52.38,502.05,52Zm0,0a8,8,0,0,1,.2,1.22h0C502.18,52.77,502.11,52.38,502.05,52Zm0,0a8,8,0,0,1,.2,1.22h0C502.18,52.77,502.11,52.38,502.05,52Zm0,0a8,8,0,0,1,.2,1.22h0C502.18,52.77,502.11,52.38,502.05,52Zm0,0a8,8,0,0,1,.2,1.22h0C502.18,52.77,502.11,52.38,502.05,52Zm0,0a8,8,0,0,1,.2,1.22h0C502.18,52.77,502.11,52.38,502.05,52Zm0,0a8,8,0,0,1,.2,1.22h0C502.18,52.77,502.11,52.38,502.05,52Z"/><path class="cls-5" d="M470.47,638.46h0a2,2,0,0,0,0,.49C470.5,638.79,470.5,638.62,470.47,638.46Z"/><path class="cls-8" d="M728.67,71.43A244.47,244.47,0,0,0,497.53,7.09a.38.38,0,0,0-.29.36v-.3a238.21,238.21,0,0,0-47,17,.35.35,0,0,0-.26.13,4.82,4.82,0,0,0-.56,1.22c-2.41,6.79-2.34,30.22-2.31,36v.33L447.2,71l2.24,398.62v220a2.51,2.51,0,0,0,4.29,1.74l43.51-43.51s.42-.43.66-.66L728.67,416.42a244.23,244.23,0,0,0,0-345Zm-27.95,317L497.34,591.81a.38.38,0,0,0-.1.27v-.17L486.19,603,483.13,61.11c0-1,0-2.11-.1-3.13s-.17-2.08-.3-3.06c0-.4-.1-.8-.16-1.16,0-.2-.07-.36-.1-.56a6.9,6.9,0,0,0-.2-1.22c.07.4.13.79.23,1.22q7.28-2.82,14.74-5v-.5a.4.4,0,0,0,.49.37,203.82,203.82,0,0,1,203,51.39C780.39,179.09,780.39,308.76,700.72,388.43Z"/><path class="cls-9" d="M352.2,25.55V70.62a199.33,199.33,0,0,0-47.8-22,204.18,204.18,0,0,0-60.52-9.09h-.16A202.73,202.73,0,0,0,107.35,91.77c-87.58,78.71-88.87,215.87-5.6,299.14L304.4,593.56l7,7v-.07l-2.47-227.21H304.4l-68.49,0a16.4,16.4,0,0,1-16.39-16.38V350.2a16.39,16.39,0,0,1,16.39-16.39l68.49,0h4l26.63,0a16.41,16.41,0,0,1,16.39,16.38v6.73a3.28,3.28,0,0,1,0,.62c0,.07,0,.13,0,.2l.86,80.3V688.84a3.5,3.5,0,0,1-6,2.47l-20.59-20.58-20.07-20.08L71.32,416.42c-95.09-95.13-95.09-249.86,0-345A242.19,242.19,0,0,1,243.69,0h.23A243.11,243.11,0,0,1,304.4,7.58c.76.2,1.55.4,2.31.63a.58.58,0,0,1,.23,0c1.81.5,3.66,1,5.47,1.52s3.63,1.08,5.41,1.65a223.25,223.25,0,0,1,21.92,8.14l4.45,2,3.13,1.42L351.57,25s0,0,.07,0A1.6,1.6,0,0,1,352.2,25.55Z"/><path class="cls-10" d="M291.61,600.48v.07l-.23-.23A.73.73,0,0,0,291.61,600.48Z"/><path class="cls-11" d="M332.72,25.94l-.3.13v-.52A1.7,1.7,0,0,1,332.72,25.94Z"/><path class="cls-5" d="M470.54,639c0-.16,0-.33-.07-.49h0A2,2,0,0,0,470.54,639Z"/><path class="cls-6" d="M502.35,53.76c0-.2-.07-.36-.1-.56a8,8,0,0,0-.2-1.22c.06.4.13.79.23,1.22C502.31,53.4,502.31,53.56,502.35,53.76Z"/></g></g></svg>